# Blender 4.5.4 LTS
# www.blender.org
mtllib cube.mtl
o Plane
v -1.000000 0.000000 1.000000
v 1.000000 0.000000 1.000000
v -1.000000 0.000000 -1.000000
v 1.000000 0.000000 -1.000000
v -1.000000 -0.608979 -1.000000
v -1.000000 -0.608979 1.000000
v 1.000000 -0.608979 1.000000
v 1.000000 -0.608979 -1.000000
vn -0.0000 -1.0000 -0.0000
vn -0.0000 1.0000 -0.0000
vn -1.0000 -0.0000 -0.0000
vn 1.0000 -0.0000 -0.0000
vn -0.0000 -0.0000 1.0000
vn -0.0000 -0.0000 -1.0000
vt 0.981122 0.575945
vt 0.956378 0.549055
vt 0.982195 0.550128
vt 0.924560 0.000000
vt 0.075440 1.000000
vt 0.075440 0.000000
vt 0.955305 0.574872
vt 0.949331 0.543081
vt 0.988169 0.581919
vt 0.949331 0.581919
vt 0.988169 0.543081
vt 0.924560 1.000000
s 0
f 3/1/1 2/2/1 1/3/1
f 7/4/2 5/5/2 6/6/2
f 4/7/3 7/8/3 2/2/3
f 1/3/4 5/9/4 3/1/4
f 3/1/5 8/10/5 4/7/5
f 2/2/6 6/11/6 1/3/6
f 3/1/1 4/7/1 2/2/1
f 7/4/2 8/12/2 5/5/2
f 4/7/3 8/10/3 7/8/3
f 1/3/4 6/11/4 5/9/4
f 3/1/5 5/9/5 8/10/5
f 2/2/6 7/8/6 6/11/6
