# Blender 4.5.4 LTS
# www.blender.org
mtllib greenwitch8.mtl
o Mesh.001
v -0.124891 -1.000000 1.000000
v -0.124891 1.000000 1.000000
v -0.124891 1.000000 -1.000000
v -0.124891 -1.000000 -1.000000
v -0.124891 -1.000000 0.750000
v -0.124891 -1.000000 0.500000
v -0.124891 -1.000000 0.250000
v -0.124891 -1.000000 -0.000000
v -0.124891 -1.000000 -0.250000
v -0.124891 -1.000000 -0.500000
v -0.124891 -1.000000 -0.750000
v -0.124891 -0.750000 1.000000
v -0.124891 -0.500000 1.000000
v -0.124891 -0.250000 1.000000
v -0.124891 -0.000000 1.000000
v -0.124891 0.250000 1.000000
v -0.124891 0.500000 1.000000
v -0.124891 0.750000 1.000000
v -0.124891 0.750000 -1.000000
v -0.124891 0.500000 -1.000000
v -0.124891 0.250000 -1.000000
v -0.124891 0.000000 -1.000000
v -0.124891 -0.250000 -1.000000
v -0.124891 -0.500000 -1.000000
v -0.124891 -0.750000 -1.000000
v -0.124891 1.000000 0.750000
v -0.124891 1.000000 0.500000
v -0.124891 1.000000 0.250000
v -0.124891 1.000000 -0.000000
v -0.124891 1.000000 -0.250000
v -0.124891 1.000000 -0.500000
v -0.124891 1.000000 -0.750000
v -0.124891 -0.750000 -0.750000
v -0.124891 -0.750000 -0.500000
v -0.124891 -0.750000 -0.250000
v -0.124891 -0.750000 -0.000000
v -0.124891 -0.750000 0.250000
v -0.124891 -0.750000 0.500000
v -0.124891 -0.750000 0.750000
v -0.124891 -0.500000 -0.750000
v -0.124891 -0.500000 -0.500000
v -0.124891 -0.500000 -0.250000
v -0.124891 -0.500000 -0.000000
v -0.124891 -0.500000 0.250000
v -0.124891 -0.500000 0.500000
v -0.124891 -0.500000 0.750000
v -0.124891 -0.250000 -0.750000
v -0.124891 -0.250000 -0.500000
v -0.124891 -0.250000 -0.250000
v -0.124891 -0.250000 -0.000000
v -0.124891 -0.250000 0.250000
v -0.124891 -0.250000 0.500000
v -0.124891 -0.250000 0.750000
v -0.124891 0.000000 -0.750000
v -0.124891 0.000000 -0.500000
v -0.124891 -0.000000 -0.250000
v -0.124891 -0.000000 -0.000000
v -0.124891 0.000000 0.250000
v -0.124891 -0.000000 0.500000
v -0.124891 -0.000000 0.750000
v -0.124891 0.250000 -0.750000
v -0.124891 0.250000 -0.500000
v -0.124891 0.250000 -0.250000
v -0.124891 0.250000 -0.000000
v -0.124891 0.250000 0.250000
v -0.124891 0.250000 0.500000
v -0.124891 0.250000 0.750000
v -0.124891 0.500000 -0.750000
v -0.124891 0.500000 -0.500000
v -0.124891 0.500000 -0.250000
v -0.124891 0.500000 -0.000000
v -0.124891 0.500000 0.250000
v -0.124891 0.500000 0.500000
v -0.124891 0.500000 0.750000
v -0.124891 0.750000 -0.750000
v -0.124891 0.750000 -0.500000
v -0.124891 0.750000 -0.250000
v -0.124891 0.750000 -0.000000
v -0.124891 0.750000 0.250000
v -0.124891 0.750000 0.500000
v -0.124891 0.750000 0.750000
v -0.640311 -1.000000 1.000000
v -0.640311 -1.000000 0.750000
v -0.640311 -1.000000 0.500000
v -0.640311 -1.000000 0.250000
v -0.640311 -1.000000 -0.000000
v -0.640311 -1.000000 -0.250000
v -0.640311 -1.000000 -0.500000
v -0.640311 -1.000000 -0.750000
v -0.640311 -1.000000 -1.000000
v -0.640311 -0.750000 1.000000
v -0.640311 -0.500000 1.000000
v -0.640311 -0.250000 1.000000
v -0.640311 -0.000000 1.000000
v -0.640311 0.250000 1.000000
v -0.640311 0.500000 1.000000
v -0.640311 0.750000 1.000000
v -0.640311 1.000000 1.000000
v -0.640311 1.000000 -1.000000
v -0.640311 0.750000 -1.000000
v -0.640311 0.500000 -1.000000
v -0.640311 0.250000 -1.000000
v -0.640311 0.000000 -1.000000
v -0.640311 -0.250000 -1.000000
v -0.640311 -0.500000 -1.000000
v -0.640311 -0.750000 -1.000000
v -0.640311 1.000000 0.750000
v -0.640311 1.000000 0.500000
v -0.640311 1.000000 0.250000
v -0.640311 1.000000 -0.000000
v -0.640311 1.000000 -0.250000
v -0.640311 1.000000 -0.500000
v -0.640311 1.000000 -0.750000
v -0.640311 -0.750000 -0.750000
v -0.640311 -0.750000 -0.500000
v -0.640311 -0.750000 -0.250000
v -0.640311 -0.750000 -0.000000
v -0.640311 -0.750000 0.250000
v -0.640311 -0.750000 0.500000
v -0.640311 -0.750000 0.750000
v -0.640311 -0.500000 -0.750000
v -0.640311 -0.500000 -0.500000
v -0.640311 -0.500000 -0.250000
v -0.640311 -0.500000 -0.000000
v -0.640311 -0.500000 0.250000
v -0.640311 -0.500000 0.500000
v -0.640311 -0.500000 0.750000
v -0.640311 -0.250000 -0.750000
v -0.640311 -0.250000 -0.500000
v -0.640311 -0.250000 -0.250000
v -0.640311 -0.250000 -0.000000
v -0.640311 -0.250000 0.250000
v -0.640311 -0.250000 0.500000
v -0.640311 -0.250000 0.750000
v -0.640311 0.000000 -0.750000
v -0.640311 0.000000 -0.500000
v -0.640311 -0.000000 -0.250000
v -0.640311 -0.000000 -0.000000
v -0.640311 0.000000 0.250000
v -0.640311 -0.000000 0.500000
v -0.640311 -0.000000 0.750000
v -0.640311 0.250000 -0.750000
v -0.640311 0.250000 -0.500000
v -0.640311 0.250000 -0.250000
v -0.640311 0.250000 -0.000000
v -0.640311 0.250000 0.250000
v -0.640311 0.250000 0.500000
v -0.640311 0.250000 0.750000
v -0.640311 0.500000 -0.750000
v -0.640311 0.500000 -0.500000
v -0.640311 0.500000 -0.250000
v -0.640311 0.500000 -0.000000
v -0.640311 0.500000 0.250000
v -0.640311 0.500000 0.500000
v -0.640311 0.500000 0.750000
v -0.640311 0.750000 -0.750000
v -0.640311 0.750000 -0.500000
v -0.640311 0.750000 -0.250000
v -0.640311 0.750000 -0.000000
v -0.640311 0.750000 0.250000
v -0.640311 0.750000 0.500000
v -0.640311 0.750000 0.750000
vn 1.0000 -0.0000 -0.0000
vn -1.0000 -0.0000 -0.0000
vn -0.0000 1.0000 -0.0000
vn -0.0000 -0.0000 1.0000
vn -0.0000 -1.0000 -0.0000
vn -0.0000 -0.0000 -1.0000
vt 0.000000 0.000000
s 0
f 35/1/1 10/1/1 34/1/1
f 36/1/1 9/1/1 35/1/1
f 37/1/1 8/1/1 36/1/1
f 37/1/1 6/1/1 7/1/1
f 39/1/1 6/1/1 38/1/1
f 12/1/1 5/1/1 39/1/1
f 18/1/1 26/1/1 2/1/1
f 40/1/1 34/1/1 33/1/1
f 42/1/1 34/1/1 41/1/1
f 43/1/1 35/1/1 42/1/1
f 44/1/1 36/1/1 43/1/1
f 45/1/1 37/1/1 44/1/1
f 46/1/1 38/1/1 45/1/1
f 13/1/1 39/1/1 46/1/1
f 23/1/1 40/1/1 24/1/1
f 48/1/1 40/1/1 47/1/1
f 49/1/1 41/1/1 48/1/1
f 50/1/1 42/1/1 49/1/1
f 51/1/1 43/1/1 50/1/1
f 52/1/1 44/1/1 51/1/1
f 52/1/1 46/1/1 45/1/1
f 53/1/1 13/1/1 46/1/1
f 23/1/1 54/1/1 47/1/1
f 55/1/1 47/1/1 54/1/1
f 56/1/1 48/1/1 55/1/1
f 56/1/1 50/1/1 49/1/1
f 58/1/1 50/1/1 57/1/1
f 59/1/1 51/1/1 58/1/1
f 60/1/1 52/1/1 59/1/1
f 60/1/1 14/1/1 53/1/1
f 21/1/1 54/1/1 22/1/1
f 61/1/1 55/1/1 54/1/1
f 63/1/1 55/1/1 62/1/1
f 64/1/1 56/1/1 63/1/1
f 64/1/1 58/1/1 57/1/1
f 66/1/1 58/1/1 65/1/1
f 67/1/1 59/1/1 66/1/1
f 16/1/1 60/1/1 67/1/1
f 20/1/1 61/1/1 21/1/1
f 68/1/1 62/1/1 61/1/1
f 70/1/1 62/1/1 69/1/1
f 71/1/1 63/1/1 70/1/1
f 72/1/1 64/1/1 71/1/1
f 73/1/1 65/1/1 72/1/1
f 74/1/1 66/1/1 73/1/1
f 17/1/1 67/1/1 74/1/1
f 20/1/1 75/1/1 68/1/1
f 76/1/1 68/1/1 75/1/1
f 76/1/1 70/1/1 69/1/1
f 78/1/1 70/1/1 77/1/1
f 79/1/1 71/1/1 78/1/1
f 80/1/1 72/1/1 79/1/1
f 81/1/1 73/1/1 80/1/1
f 18/1/1 74/1/1 81/1/1
f 11/1/1 25/1/1 33/1/1
f 114/1/2 105/1/2 106/1/2
f 3/1/1 75/1/1 19/1/1
f 76/1/1 32/1/1 31/1/1
f 77/1/1 31/1/1 30/1/1
f 29/1/1 77/1/1 30/1/1
f 79/1/1 29/1/1 28/1/1
f 80/1/1 28/1/1 27/1/1
f 26/1/1 80/1/1 27/1/1
f 88/1/2 114/1/2 89/1/2
f 33/1/1 10/1/1 11/1/1
f 116/1/2 88/1/2 87/1/2
f 117/1/2 87/1/2 86/1/2
f 118/1/2 86/1/2 85/1/2
f 84/1/2 118/1/2 85/1/2
f 120/1/2 84/1/2 83/1/2
f 91/1/2 83/1/2 82/1/2
f 97/1/2 107/1/2 162/1/2
f 115/1/2 121/1/2 114/1/2
f 123/1/2 115/1/2 116/1/2
f 124/1/2 116/1/2 117/1/2
f 125/1/2 117/1/2 118/1/2
f 126/1/2 118/1/2 119/1/2
f 127/1/2 119/1/2 120/1/2
f 92/1/2 120/1/2 91/1/2
f 121/1/2 104/1/2 105/1/2
f 129/1/2 121/1/2 122/1/2
f 130/1/2 122/1/2 123/1/2
f 131/1/2 123/1/2 124/1/2
f 132/1/2 124/1/2 125/1/2
f 133/1/2 125/1/2 126/1/2
f 127/1/2 133/1/2 126/1/2
f 92/1/2 134/1/2 127/1/2
f 104/1/2 135/1/2 103/1/2
f 136/1/2 128/1/2 129/1/2
f 137/1/2 129/1/2 130/1/2
f 131/1/2 137/1/2 130/1/2
f 139/1/2 131/1/2 132/1/2
f 140/1/2 132/1/2 133/1/2
f 141/1/2 133/1/2 134/1/2
f 93/1/2 141/1/2 134/1/2
f 135/1/2 102/1/2 103/1/2
f 136/1/2 142/1/2 135/1/2
f 144/1/2 136/1/2 137/1/2
f 145/1/2 137/1/2 138/1/2
f 139/1/2 145/1/2 138/1/2
f 147/1/2 139/1/2 140/1/2
f 148/1/2 140/1/2 141/1/2
f 95/1/2 141/1/2 94/1/2
f 142/1/2 101/1/2 102/1/2
f 150/1/2 142/1/2 143/1/2
f 151/1/2 143/1/2 144/1/2
f 152/1/2 144/1/2 145/1/2
f 153/1/2 145/1/2 146/1/2
f 154/1/2 146/1/2 147/1/2
f 155/1/2 147/1/2 148/1/2
f 96/1/2 148/1/2 95/1/2
f 101/1/2 156/1/2 100/1/2
f 157/1/2 149/1/2 150/1/2
f 151/1/2 157/1/2 150/1/2
f 159/1/2 151/1/2 152/1/2
f 160/1/2 152/1/2 153/1/2
f 161/1/2 153/1/2 154/1/2
f 162/1/2 154/1/2 155/1/2
f 97/1/2 155/1/2 96/1/2
f 106/1/2 89/1/2 114/1/2
f 28/1/3 108/1/3 27/1/3
f 156/1/2 99/1/2 100/1/2
f 112/1/2 156/1/2 157/1/2
f 111/1/2 157/1/2 158/1/2
f 110/1/2 158/1/2 159/1/2
f 109/1/2 159/1/2 160/1/2
f 108/1/2 160/1/2 161/1/2
f 107/1/2 161/1/2 162/1/2
f 16/1/4 94/1/4 15/1/4
f 17/1/4 95/1/4 16/1/4
f 1/1/5 83/1/5 5/1/5
f 18/1/4 96/1/4 17/1/4
f 29/1/3 109/1/3 28/1/3
f 5/1/5 84/1/5 6/1/5
f 2/1/4 97/1/4 18/1/4
f 30/1/3 110/1/3 29/1/3
f 6/1/5 85/1/5 7/1/5
f 3/1/6 100/1/6 99/1/6
f 31/1/3 111/1/3 30/1/3
f 7/1/5 86/1/5 8/1/5
f 20/1/6 100/1/6 19/1/6
f 32/1/3 112/1/3 31/1/3
f 8/1/5 87/1/5 9/1/5
f 21/1/6 101/1/6 20/1/6
f 3/1/3 113/1/3 32/1/3
f 9/1/5 88/1/5 10/1/5
f 22/1/6 102/1/6 21/1/6
f 11/1/5 88/1/5 89/1/5
f 23/1/6 103/1/6 22/1/6
f 11/1/5 90/1/5 4/1/5
f 24/1/6 104/1/6 23/1/6
f 26/1/3 98/1/3 2/1/3
f 12/1/4 82/1/4 1/1/4
f 24/1/6 106/1/6 105/1/6
f 13/1/4 91/1/4 12/1/4
f 4/1/6 106/1/6 25/1/6
f 13/1/4 93/1/4 92/1/4
f 14/1/4 94/1/4 93/1/4
f 27/1/3 107/1/3 26/1/3
f 24/1/1 33/1/1 25/1/1
f 35/1/1 9/1/1 10/1/1
f 36/1/1 8/1/1 9/1/1
f 37/1/1 7/1/1 8/1/1
f 37/1/1 38/1/1 6/1/1
f 39/1/1 5/1/1 6/1/1
f 12/1/1 1/1/1 5/1/1
f 18/1/1 81/1/1 26/1/1
f 40/1/1 41/1/1 34/1/1
f 42/1/1 35/1/1 34/1/1
f 43/1/1 36/1/1 35/1/1
f 44/1/1 37/1/1 36/1/1
f 45/1/1 38/1/1 37/1/1
f 46/1/1 39/1/1 38/1/1
f 13/1/1 12/1/1 39/1/1
f 23/1/1 47/1/1 40/1/1
f 48/1/1 41/1/1 40/1/1
f 49/1/1 42/1/1 41/1/1
f 50/1/1 43/1/1 42/1/1
f 51/1/1 44/1/1 43/1/1
f 52/1/1 45/1/1 44/1/1
f 52/1/1 53/1/1 46/1/1
f 53/1/1 14/1/1 13/1/1
f 23/1/1 22/1/1 54/1/1
f 55/1/1 48/1/1 47/1/1
f 56/1/1 49/1/1 48/1/1
f 56/1/1 57/1/1 50/1/1
f 58/1/1 51/1/1 50/1/1
f 59/1/1 52/1/1 51/1/1
f 60/1/1 53/1/1 52/1/1
f 60/1/1 15/1/1 14/1/1
f 21/1/1 61/1/1 54/1/1
f 61/1/1 62/1/1 55/1/1
f 63/1/1 56/1/1 55/1/1
f 64/1/1 57/1/1 56/1/1
f 64/1/1 65/1/1 58/1/1
f 66/1/1 59/1/1 58/1/1
f 67/1/1 60/1/1 59/1/1
f 16/1/1 15/1/1 60/1/1
f 20/1/1 68/1/1 61/1/1
f 68/1/1 69/1/1 62/1/1
f 70/1/1 63/1/1 62/1/1
f 71/1/1 64/1/1 63/1/1
f 72/1/1 65/1/1 64/1/1
f 73/1/1 66/1/1 65/1/1
f 74/1/1 67/1/1 66/1/1
f 17/1/1 16/1/1 67/1/1
f 20/1/1 19/1/1 75/1/1
f 76/1/1 69/1/1 68/1/1
f 76/1/1 77/1/1 70/1/1
f 78/1/1 71/1/1 70/1/1
f 79/1/1 72/1/1 71/1/1
f 80/1/1 73/1/1 72/1/1
f 81/1/1 74/1/1 73/1/1
f 18/1/1 17/1/1 74/1/1
f 11/1/1 4/1/1 25/1/1
f 114/1/2 121/1/2 105/1/2
f 3/1/1 32/1/1 75/1/1
f 76/1/1 75/1/1 32/1/1
f 77/1/1 76/1/1 31/1/1
f 29/1/1 78/1/1 77/1/1
f 79/1/1 78/1/1 29/1/1
f 80/1/1 79/1/1 28/1/1
f 26/1/1 81/1/1 80/1/1
f 88/1/2 115/1/2 114/1/2
f 33/1/1 34/1/1 10/1/1
f 116/1/2 115/1/2 88/1/2
f 117/1/2 116/1/2 87/1/2
f 118/1/2 117/1/2 86/1/2
f 84/1/2 119/1/2 118/1/2
f 120/1/2 119/1/2 84/1/2
f 91/1/2 120/1/2 83/1/2
f 97/1/2 98/1/2 107/1/2
f 115/1/2 122/1/2 121/1/2
f 123/1/2 122/1/2 115/1/2
f 124/1/2 123/1/2 116/1/2
f 125/1/2 124/1/2 117/1/2
f 126/1/2 125/1/2 118/1/2
f 127/1/2 126/1/2 119/1/2
f 92/1/2 127/1/2 120/1/2
f 121/1/2 128/1/2 104/1/2
f 129/1/2 128/1/2 121/1/2
f 130/1/2 129/1/2 122/1/2
f 131/1/2 130/1/2 123/1/2
f 132/1/2 131/1/2 124/1/2
f 133/1/2 132/1/2 125/1/2
f 127/1/2 134/1/2 133/1/2
f 92/1/2 93/1/2 134/1/2
f 104/1/2 128/1/2 135/1/2
f 136/1/2 135/1/2 128/1/2
f 137/1/2 136/1/2 129/1/2
f 131/1/2 138/1/2 137/1/2
f 139/1/2 138/1/2 131/1/2
f 140/1/2 139/1/2 132/1/2
f 141/1/2 140/1/2 133/1/2
f 93/1/2 94/1/2 141/1/2
f 135/1/2 142/1/2 102/1/2
f 136/1/2 143/1/2 142/1/2
f 144/1/2 143/1/2 136/1/2
f 145/1/2 144/1/2 137/1/2
f 139/1/2 146/1/2 145/1/2
f 147/1/2 146/1/2 139/1/2
f 148/1/2 147/1/2 140/1/2
f 95/1/2 148/1/2 141/1/2
f 142/1/2 149/1/2 101/1/2
f 150/1/2 149/1/2 142/1/2
f 151/1/2 150/1/2 143/1/2
f 152/1/2 151/1/2 144/1/2
f 153/1/2 152/1/2 145/1/2
f 154/1/2 153/1/2 146/1/2
f 155/1/2 154/1/2 147/1/2
f 96/1/2 155/1/2 148/1/2
f 101/1/2 149/1/2 156/1/2
f 157/1/2 156/1/2 149/1/2
f 151/1/2 158/1/2 157/1/2
f 159/1/2 158/1/2 151/1/2
f 160/1/2 159/1/2 152/1/2
f 161/1/2 160/1/2 153/1/2
f 162/1/2 161/1/2 154/1/2
f 97/1/2 162/1/2 155/1/2
f 106/1/2 90/1/2 89/1/2
f 28/1/3 109/1/3 108/1/3
f 156/1/2 113/1/2 99/1/2
f 112/1/2 113/1/2 156/1/2
f 111/1/2 112/1/2 157/1/2
f 110/1/2 111/1/2 158/1/2
f 109/1/2 110/1/2 159/1/2
f 108/1/2 109/1/2 160/1/2
f 107/1/2 108/1/2 161/1/2
f 16/1/4 95/1/4 94/1/4
f 17/1/4 96/1/4 95/1/4
f 1/1/5 82/1/5 83/1/5
f 18/1/4 97/1/4 96/1/4
f 29/1/3 110/1/3 109/1/3
f 5/1/5 83/1/5 84/1/5
f 2/1/4 98/1/4 97/1/4
f 30/1/3 111/1/3 110/1/3
f 6/1/5 84/1/5 85/1/5
f 3/1/6 19/1/6 100/1/6
f 31/1/3 112/1/3 111/1/3
f 7/1/5 85/1/5 86/1/5
f 20/1/6 101/1/6 100/1/6
f 32/1/3 113/1/3 112/1/3
f 8/1/5 86/1/5 87/1/5
f 21/1/6 102/1/6 101/1/6
f 3/1/3 99/1/3 113/1/3
f 9/1/5 87/1/5 88/1/5
f 22/1/6 103/1/6 102/1/6
f 11/1/5 10/1/5 88/1/5
f 23/1/6 104/1/6 103/1/6
f 11/1/5 89/1/5 90/1/5
f 24/1/6 105/1/6 104/1/6
f 26/1/3 107/1/3 98/1/3
f 12/1/4 91/1/4 82/1/4
f 24/1/6 25/1/6 106/1/6
f 13/1/4 92/1/4 91/1/4
f 4/1/6 90/1/6 106/1/6
f 13/1/4 14/1/4 93/1/4
f 14/1/4 15/1/4 94/1/4
f 27/1/3 108/1/3 107/1/3
f 24/1/1 40/1/1 33/1/1
