# Blender 4.5.4 LTS
# www.blender.org
mtllib greenwitch.mtl
o Plane
v -0.000000 1.000000 1.000000
v 0.000000 -1.000000 1.000000
v -0.000000 1.000000 -1.000000
v 0.000000 -1.000000 -1.000000
v -0.000000 0.679689 0.679689
v 0.000000 -0.679689 0.679689
v -0.000000 0.679689 -0.679689
v 0.000000 -0.679689 -0.679689
v 0.000000 0.000000 0.000000
vn -1.0000 -0.0000 -0.0000
vn 1.0000 -0.0000 -0.0000
vt 0.000000 0.000000
vt 0.000000 1.000000
vt 1.000000 1.000000
vt 1.000000 0.000000
s 0
f 1/1/1 3/2/1 4/3/1 2/4/1
f 6/4/2 8/3/2 9/4/2
f 1/1/2 2/4/2 6/4/2 5/1/2
f 2/4/2 4/3/2 8/3/2 6/4/2
f 3/2/2 1/1/2 5/1/2 7/2/2
f 4/3/2 3/2/2 7/2/2 8/3/2
f 7/2/2 5/1/2 9/2/2
f 8/3/2 7/2/2 9/3/2
f 5/1/2 6/4/2 9/1/2
