# Blender 4.5.4 LTS
# www.blender.org
mtllib greenwitch7.mtl
o Mesh.001
v -0.124891 -1.000000 1.000000
v -0.124891 1.000000 1.000000
v -0.124891 1.000000 -1.000000
v -0.124891 -1.000000 -1.000000
v -0.124891 -1.000000 0.875000
v -0.124891 -1.000000 0.750000
v -0.124891 -1.000000 0.625000
v -0.124891 -1.000000 0.500000
v -0.124891 -1.000000 0.375000
v -0.124891 -1.000000 0.250000
v -0.124891 -1.000000 0.125000
v -0.124891 -1.000000 -0.000000
v -0.124891 -1.000000 -0.125000
v -0.124891 -1.000000 -0.250000
v -0.124891 -1.000000 -0.375000
v -0.124891 -1.000000 -0.500000
v -0.124891 -1.000000 -0.625000
v -0.124891 -1.000000 -0.750000
v -0.124891 -1.000000 -0.875000
v -0.124891 -0.750000 1.000000
v -0.124891 -0.500000 1.000000
v -0.124891 -0.250000 1.000000
v -0.124891 -0.000000 1.000000
v -0.124891 0.250000 1.000000
v -0.124891 0.500000 1.000000
v -0.124891 0.750000 1.000000
v -0.124891 0.750000 -1.000000
v -0.124891 0.500000 -1.000000
v -0.124891 0.250000 -1.000000
v -0.124891 0.000000 -1.000000
v -0.124891 -0.250000 -1.000000
v -0.124891 -0.500000 -1.000000
v -0.124891 -0.750000 -1.000000
v -0.124891 1.000000 0.875000
v -0.124891 1.000000 0.750000
v -0.124891 1.000000 0.625000
v -0.124891 1.000000 0.500000
v -0.124891 1.000000 0.375000
v -0.124891 1.000000 0.250000
v -0.124891 1.000000 0.125000
v -0.124891 1.000000 -0.000000
v -0.124891 1.000000 -0.125000
v -0.124891 1.000000 -0.250000
v -0.124891 1.000000 -0.375000
v -0.124891 1.000000 -0.500000
v -0.124891 1.000000 -0.625000
v -0.124891 1.000000 -0.750000
v -0.124891 1.000000 -0.875000
v -0.124891 -0.750000 -0.875000
v -0.124891 -0.750000 -0.750000
v -0.124891 -0.750000 -0.625000
v -0.124891 -0.750000 -0.500000
v -0.124891 -0.750000 -0.375000
v -0.124891 -0.750000 -0.250000
v -0.124891 -0.750000 -0.125000
v -0.124891 -0.750000 -0.000000
v -0.124891 -0.750000 0.125000
v -0.124891 -0.750000 0.250000
v -0.124891 -0.750000 0.375000
v -0.124891 -0.750000 0.500000
v -0.124891 -0.750000 0.625000
v -0.124891 -0.750000 0.750000
v -0.124891 -0.750000 0.875000
v -0.124891 -0.500000 -0.875000
v -0.124891 -0.500000 -0.750000
v -0.124891 -0.500000 -0.625000
v -0.124891 -0.500000 -0.500000
v -0.124891 -0.500000 -0.375000
v -0.124891 -0.500000 -0.250000
v -0.124891 -0.500000 -0.125000
v -0.124891 -0.500000 -0.000000
v -0.124891 -0.500000 0.125000
v -0.124891 -0.500000 0.250000
v -0.124891 -0.500000 0.375000
v -0.124891 -0.500000 0.500000
v -0.124891 -0.500000 0.625000
v -0.124891 -0.500000 0.750000
v -0.124891 -0.500000 0.875000
v -0.124891 -0.250000 -0.875000
v -0.124891 -0.250000 -0.750000
v -0.124891 -0.250000 -0.625000
v -0.124891 -0.250000 -0.500000
v -0.124891 -0.250000 -0.375000
v -0.124891 -0.250000 -0.250000
v -0.124891 -0.250000 -0.125000
v -0.124891 -0.250000 -0.000000
v -0.124891 -0.250000 0.125000
v -0.124891 -0.250000 0.250000
v -0.124891 -0.250000 0.375000
v -0.124891 -0.250000 0.500000
v -0.124891 -0.250000 0.625000
v -0.124891 -0.250000 0.750000
v -0.124891 -0.250000 0.875000
v -0.124891 0.000000 -0.875000
v -0.124891 0.000000 -0.750000
v -0.124891 0.000000 -0.625000
v -0.124891 0.000000 -0.500000
v -0.124891 -0.000000 -0.375000
v -0.124891 -0.000000 -0.250000
v -0.124891 -0.000000 -0.125000
v -0.124891 -0.000000 -0.000000
v -0.124891 0.000000 0.125000
v -0.124891 0.000000 0.250000
v -0.124891 -0.000000 0.375000
v -0.124891 -0.000000 0.500000
v -0.124891 -0.000000 0.625000
v -0.124891 -0.000000 0.750000
v -0.124891 -0.000000 0.875000
v -0.124891 0.250000 -0.875000
v -0.124891 0.250000 -0.750000
v -0.124891 0.250000 -0.625000
v -0.124891 0.250000 -0.500000
v -0.124891 0.250000 -0.375000
v -0.124891 0.250000 -0.250000
v -0.124891 0.250000 -0.125000
v -0.124891 0.250000 -0.000000
v -0.124891 0.250000 0.125000
v -0.124891 0.250000 0.250000
v -0.124891 0.250000 0.375000
v -0.124891 0.250000 0.500000
v -0.124891 0.250000 0.625000
v -0.124891 0.250000 0.750000
v -0.124891 0.250000 0.875000
v -0.124891 0.500000 -0.875000
v -0.124891 0.500000 -0.750000
v -0.124891 0.500000 -0.625000
v -0.124891 0.500000 -0.500000
v -0.124891 0.500000 -0.375000
v -0.124891 0.500000 -0.250000
v -0.124891 0.500000 -0.125000
v -0.124891 0.500000 -0.000000
v -0.124891 0.500000 0.125000
v -0.124891 0.500000 0.250000
v -0.124891 0.500000 0.375000
v -0.124891 0.500000 0.500000
v -0.124891 0.500000 0.625000
v -0.124891 0.500000 0.750000
v -0.124891 0.500000 0.875000
v -0.124891 0.750000 -0.875000
v -0.124891 0.750000 -0.750000
v -0.124891 0.750000 -0.625000
v -0.124891 0.750000 -0.500000
v -0.124891 0.750000 -0.375000
v -0.124891 0.750000 -0.250000
v -0.124891 0.750000 -0.125000
v -0.124891 0.750000 -0.000000
v -0.124891 0.750000 0.125000
v -0.124891 0.750000 0.250000
v -0.124891 0.750000 0.375000
v -0.124891 0.750000 0.500000
v -0.124891 0.750000 0.625000
v -0.124891 0.750000 0.750000
v -0.124891 0.750000 0.875000
v -0.640311 -1.000000 1.000000
v -0.640311 -1.000000 0.875000
v -0.640311 -1.000000 0.750000
v -0.640311 -1.000000 0.625000
v -0.640311 -1.000000 0.500000
v -0.640311 -1.000000 0.375000
v -0.640311 -1.000000 0.250000
v -0.640311 -1.000000 0.125000
v -0.640311 -1.000000 -0.000000
v -0.640311 -1.000000 -0.125000
v -0.640311 -1.000000 -0.250000
v -0.640311 -1.000000 -0.375000
v -0.640311 -1.000000 -0.500000
v -0.640311 -1.000000 -0.625000
v -0.640311 -1.000000 -0.750000
v -0.640311 -1.000000 -0.875000
v -0.640311 -1.000000 -1.000000
v -0.640311 -0.750000 1.000000
v -0.640311 -0.500000 1.000000
v -0.640311 -0.250000 1.000000
v -0.640311 -0.000000 1.000000
v -0.640311 0.250000 1.000000
v -0.640311 0.500000 1.000000
v -0.640311 0.750000 1.000000
v -0.640311 1.000000 1.000000
v -0.640311 1.000000 -1.000000
v -0.640311 0.750000 -1.000000
v -0.640311 0.500000 -1.000000
v -0.640311 0.250000 -1.000000
v -0.640311 0.000000 -1.000000
v -0.640311 -0.250000 -1.000000
v -0.640311 -0.500000 -1.000000
v -0.640311 -0.750000 -1.000000
v -0.640311 1.000000 0.875000
v -0.640311 1.000000 0.750000
v -0.640311 1.000000 0.625000
v -0.640311 1.000000 0.500000
v -0.640311 1.000000 0.375000
v -0.640311 1.000000 0.250000
v -0.640311 1.000000 0.125000
v -0.640311 1.000000 -0.000000
v -0.640311 1.000000 -0.125000
v -0.640311 1.000000 -0.250000
v -0.640311 1.000000 -0.375000
v -0.640311 1.000000 -0.500000
v -0.640311 1.000000 -0.625000
v -0.640311 1.000000 -0.750000
v -0.640311 1.000000 -0.875000
v -0.640311 -0.750000 -0.875000
v -0.640311 -0.750000 -0.750000
v -0.640311 -0.750000 -0.625000
v -0.640311 -0.750000 -0.500000
v -0.640311 -0.750000 -0.375000
v -0.640311 -0.750000 -0.250000
v -0.640311 -0.750000 -0.125000
v -0.640311 -0.750000 -0.000000
v -0.640311 -0.750000 0.125000
v -0.640311 -0.750000 0.250000
v -0.640311 -0.750000 0.375000
v -0.640311 -0.750000 0.500000
v -0.640311 -0.750000 0.625000
v -0.640311 -0.750000 0.750000
v -0.640311 -0.750000 0.875000
v -0.640311 -0.500000 -0.875000
v -0.640311 -0.500000 -0.750000
v -0.640311 -0.500000 -0.625000
v -0.640311 -0.500000 -0.500000
v -0.640311 -0.500000 -0.375000
v -0.640311 -0.500000 -0.250000
v -0.640311 -0.500000 -0.125000
v -0.640311 -0.500000 -0.000000
v -0.640311 -0.500000 0.125000
v -0.640311 -0.500000 0.250000
v -0.640311 -0.500000 0.375000
v -0.640311 -0.500000 0.500000
v -0.640311 -0.500000 0.625000
v -0.640311 -0.500000 0.750000
v -0.640311 -0.500000 0.875000
v -0.640311 -0.250000 -0.875000
v -0.640311 -0.250000 -0.750000
v -0.640311 -0.250000 -0.625000
v -0.640311 -0.250000 -0.500000
v -0.640311 -0.250000 -0.375000
v -0.640311 -0.250000 -0.250000
v -0.640311 -0.250000 -0.125000
v -0.640311 -0.250000 -0.000000
v -0.640311 -0.250000 0.125000
v -0.640311 -0.250000 0.250000
v -0.640311 -0.250000 0.375000
v -0.640311 -0.250000 0.500000
v -0.640311 -0.250000 0.625000
v -0.640311 -0.250000 0.750000
v -0.640311 -0.250000 0.875000
v -0.640311 0.000000 -0.875000
v -0.640311 0.000000 -0.750000
v -0.640311 0.000000 -0.625000
v -0.640311 0.000000 -0.500000
v -0.640311 -0.000000 -0.375000
v -0.640311 -0.000000 -0.250000
v -0.640311 -0.000000 -0.125000
v -0.640311 -0.000000 -0.000000
v -0.640311 0.000000 0.125000
v -0.640311 0.000000 0.250000
v -0.640311 -0.000000 0.375000
v -0.640311 -0.000000 0.500000
v -0.640311 -0.000000 0.625000
v -0.640311 -0.000000 0.750000
v -0.640311 -0.000000 0.875000
v -0.640311 0.250000 -0.875000
v -0.640311 0.250000 -0.750000
v -0.640311 0.250000 -0.625000
v -0.640311 0.250000 -0.500000
v -0.640311 0.250000 -0.375000
v -0.640311 0.250000 -0.250000
v -0.640311 0.250000 -0.125000
v -0.640311 0.250000 -0.000000
v -0.640311 0.250000 0.125000
v -0.640311 0.250000 0.250000
v -0.640311 0.250000 0.375000
v -0.640311 0.250000 0.500000
v -0.640311 0.250000 0.625000
v -0.640311 0.250000 0.750000
v -0.640311 0.250000 0.875000
v -0.640311 0.500000 -0.875000
v -0.640311 0.500000 -0.750000
v -0.640311 0.500000 -0.625000
v -0.640311 0.500000 -0.500000
v -0.640311 0.500000 -0.375000
v -0.640311 0.500000 -0.250000
v -0.640311 0.500000 -0.125000
v -0.640311 0.500000 -0.000000
v -0.640311 0.500000 0.125000
v -0.640311 0.500000 0.250000
v -0.640311 0.500000 0.375000
v -0.640311 0.500000 0.500000
v -0.640311 0.500000 0.625000
v -0.640311 0.500000 0.750000
v -0.640311 0.500000 0.875000
v -0.640311 0.750000 -0.875000
v -0.640311 0.750000 -0.750000
v -0.640311 0.750000 -0.625000
v -0.640311 0.750000 -0.500000
v -0.640311 0.750000 -0.375000
v -0.640311 0.750000 -0.250000
v -0.640311 0.750000 -0.125000
v -0.640311 0.750000 -0.000000
v -0.640311 0.750000 0.125000
v -0.640311 0.750000 0.250000
v -0.640311 0.750000 0.375000
v -0.640311 0.750000 0.500000
v -0.640311 0.750000 0.625000
v -0.640311 0.750000 0.750000
v -0.640311 0.750000 0.875000
vn 1.0000 -0.0000 -0.0000
vn -0.0000 -0.0000 1.0000
vn -0.0000 1.0000 -0.0000
vn -1.0000 -0.0000 -0.0000
vn -0.0000 -1.0000 -0.0000
vn -0.0000 -0.0000 -1.0000
vt 0.000000 0.000000
s 0
f 50/1/1 17/1/1 18/1/1
f 51/1/1 16/1/1 17/1/1
f 16/1/1 53/1/1 15/1/1
f 53/1/1 14/1/1 15/1/1
f 54/1/1 13/1/1 14/1/1
f 13/1/1 56/1/1 12/1/1
f 56/1/1 11/1/1 12/1/1
f 11/1/1 58/1/1 10/1/1
f 10/1/1 59/1/1 9/1/1
f 59/1/1 8/1/1 9/1/1
f 8/1/1 61/1/1 7/1/1
f 7/1/1 62/1/1 6/1/1
f 62/1/1 5/1/1 6/1/1
f 49/1/1 65/1/1 50/1/1
f 65/1/1 51/1/1 50/1/1
f 66/1/1 52/1/1 51/1/1
f 52/1/1 68/1/1 53/1/1
f 68/1/1 54/1/1 53/1/1
f 69/1/1 55/1/1 54/1/1
f 55/1/1 71/1/1 56/1/1
f 71/1/1 57/1/1 56/1/1
f 57/1/1 73/1/1 58/1/1
f 73/1/1 59/1/1 58/1/1
f 59/1/1 75/1/1 60/1/1
f 75/1/1 61/1/1 60/1/1
f 61/1/1 77/1/1 62/1/1
f 77/1/1 63/1/1 62/1/1
f 64/1/1 80/1/1 65/1/1
f 26/1/2 177/1/2 176/1/2
f 38/1/3 191/1/3 190/1/3
f 25/1/2 176/1/2 175/1/2
f 186/1/4 170/1/4 169/1/4
f 202/1/4 217/1/4 185/1/4
f 217/1/4 232/1/4 184/1/4
f 184/1/4 232/1/4 247/1/4
f 247/1/4 262/1/4 182/1/4
f 182/1/4 262/1/4 277/1/4
f 181/1/4 277/1/4 292/1/4
f 180/1/4 292/1/4 201/1/4
f 177/1/4 178/1/4 187/1/4
f 176/1/4 177/1/4 306/1/4
f 176/1/4 291/1/4 276/1/4
f 80/1/1 66/1/1 65/1/1
f 81/1/1 67/1/1 66/1/1
f 67/1/1 83/1/1 68/1/1
f 83/1/1 69/1/1 68/1/1
f 84/1/1 70/1/1 69/1/1
f 85/1/1 71/1/1 70/1/1
f 86/1/1 72/1/1 71/1/1
f 72/1/1 88/1/1 73/1/1
f 88/1/1 74/1/1 73/1/1
f 89/1/1 75/1/1 74/1/1
f 90/1/1 76/1/1 75/1/1
f 91/1/1 77/1/1 76/1/1
f 92/1/1 78/1/1 77/1/1
f 94/1/1 80/1/1 79/1/1
f 175/1/4 276/1/4 261/1/4
f 174/1/4 261/1/4 246/1/4
f 173/1/4 246/1/4 231/1/4
f 172/1/4 231/1/4 216/1/4
f 24/1/2 175/1/2 174/1/2
f 171/1/4 216/1/4 155/1/4
f 306/1/4 187/1/4 188/1/4
f 188/1/4 189/1/4 304/1/4
f 189/1/4 190/1/4 303/1/4
f 190/1/4 191/1/4 302/1/4
f 191/1/4 192/1/4 301/1/4
f 192/1/4 193/1/4 300/1/4
f 193/1/4 194/1/4 299/1/4
f 194/1/4 195/1/4 298/1/4
f 80/1/1 96/1/1 81/1/1
f 81/1/1 97/1/1 82/1/1
f 82/1/1 98/1/1 83/1/1
f 98/1/1 84/1/1 83/1/1
f 99/1/1 85/1/1 84/1/1
f 100/1/1 86/1/1 85/1/1
f 101/1/1 87/1/1 86/1/1
f 102/1/1 88/1/1 87/1/1
f 88/1/1 104/1/1 89/1/1
f 104/1/1 90/1/1 89/1/1
f 105/1/1 91/1/1 90/1/1
f 91/1/1 107/1/1 92/1/1
f 107/1/1 93/1/1 92/1/1
f 109/1/1 95/1/1 94/1/1
f 195/1/4 196/1/4 297/1/4
f 196/1/4 197/1/4 296/1/4
f 197/1/4 198/1/4 295/1/4
f 198/1/4 199/1/4 294/1/4
f 199/1/4 200/1/4 293/1/4
f 293/1/4 200/1/4 201/1/4
f 291/1/4 306/1/4 305/1/4
f 305/1/4 304/1/4 289/1/4
f 304/1/4 303/1/4 288/1/4
f 288/1/4 303/1/4 302/1/4
f 302/1/4 301/1/4 286/1/4
f 301/1/4 300/1/4 285/1/4
f 300/1/4 299/1/4 284/1/4
f 299/1/4 298/1/4 283/1/4
f 110/1/1 96/1/1 95/1/1
f 111/1/1 97/1/1 96/1/1
f 97/1/1 113/1/1 98/1/1
f 113/1/1 99/1/1 98/1/1
f 114/1/1 100/1/1 99/1/1
f 100/1/1 116/1/1 101/1/1
f 116/1/1 102/1/1 101/1/1
f 117/1/1 103/1/1 102/1/1
f 103/1/1 119/1/1 104/1/1
f 104/1/1 120/1/1 105/1/1
f 120/1/1 106/1/1 105/1/1
f 121/1/1 107/1/1 106/1/1
f 122/1/1 108/1/1 107/1/1
f 124/1/1 110/1/1 109/1/1
f 298/1/4 297/1/4 282/1/4
f 297/1/4 296/1/4 281/1/4
f 296/1/4 295/1/4 280/1/4
f 295/1/4 294/1/4 279/1/4
f 294/1/4 293/1/4 278/1/4
f 293/1/4 292/1/4 277/1/4
f 291/1/4 290/1/4 275/1/4
f 290/1/4 289/1/4 274/1/4
f 274/1/4 289/1/4 288/1/4
f 288/1/4 287/1/4 272/1/4
f 287/1/4 286/1/4 271/1/4
f 271/1/4 286/1/4 285/1/4
f 285/1/4 284/1/4 269/1/4
f 269/1/4 284/1/4 283/1/4
f 125/1/1 111/1/1 110/1/1
f 111/1/1 127/1/1 112/1/1
f 127/1/1 113/1/1 112/1/1
f 128/1/1 114/1/1 113/1/1
f 129/1/1 115/1/1 114/1/1
f 130/1/1 116/1/1 115/1/1
f 131/1/1 117/1/1 116/1/1
f 132/1/1 118/1/1 117/1/1
f 133/1/1 119/1/1 118/1/1
f 134/1/1 120/1/1 119/1/1
f 135/1/1 121/1/1 120/1/1
f 121/1/1 137/1/1 122/1/1
f 137/1/1 123/1/1 122/1/1
f 139/1/1 125/1/1 124/1/1
f 268/1/4 283/1/4 282/1/4
f 282/1/4 281/1/4 266/1/4
f 281/1/4 280/1/4 265/1/4
f 265/1/4 280/1/4 279/1/4
f 279/1/4 278/1/4 263/1/4
f 278/1/4 277/1/4 262/1/4
f 261/1/4 276/1/4 275/1/4
f 275/1/4 274/1/4 259/1/4
f 259/1/4 274/1/4 273/1/4
f 273/1/4 272/1/4 257/1/4
f 272/1/4 271/1/4 256/1/4
f 271/1/4 270/1/4 255/1/4
f 255/1/4 270/1/4 269/1/4
f 269/1/4 268/1/4 253/1/4
f 140/1/1 126/1/1 125/1/1
f 126/1/1 142/1/1 127/1/1
f 127/1/1 143/1/1 128/1/1
f 143/1/1 129/1/1 128/1/1
f 129/1/1 145/1/1 130/1/1
f 130/1/1 146/1/1 131/1/1
f 146/1/1 132/1/1 131/1/1
f 132/1/1 148/1/1 133/1/1
f 148/1/1 134/1/1 133/1/1
f 149/1/1 135/1/1 134/1/1
f 150/1/1 136/1/1 135/1/1
f 136/1/1 152/1/1 137/1/1
f 152/1/1 138/1/1 137/1/1
f 48/1/1 140/1/1 139/1/1
f 268/1/4 267/1/4 252/1/4
f 267/1/4 266/1/4 251/1/4
f 266/1/4 265/1/4 250/1/4
f 250/1/4 265/1/4 264/1/4
f 264/1/4 263/1/4 248/1/4
f 248/1/4 263/1/4 262/1/4
f 261/1/4 260/1/4 245/1/4
f 260/1/4 259/1/4 244/1/4
f 244/1/4 259/1/4 258/1/4
f 258/1/4 257/1/4 242/1/4
f 257/1/4 256/1/4 241/1/4
f 256/1/4 255/1/4 240/1/4
f 255/1/4 254/1/4 239/1/4
f 239/1/4 254/1/4 253/1/4
f 47/1/1 141/1/1 140/1/1
f 141/1/1 45/1/1 142/1/1
f 45/1/1 143/1/1 142/1/1
f 44/1/1 144/1/1 143/1/1
f 144/1/1 42/1/1 145/1/1
f 42/1/1 146/1/1 145/1/1
f 41/1/1 147/1/1 146/1/1
f 147/1/1 39/1/1 148/1/1
f 39/1/1 149/1/1 148/1/1
f 149/1/1 37/1/1 150/1/1
f 150/1/1 36/1/1 151/1/1
f 151/1/1 35/1/1 152/1/1
f 35/1/1 153/1/1 152/1/1
f 20/1/1 5/1/1 63/1/1
f 169/1/4 203/1/4 202/1/4
f 44/1/3 197/1/3 196/1/3
f 9/1/5 159/1/5 160/1/5
f 43/1/3 196/1/3 195/1/3
f 8/1/5 158/1/5 159/1/5
f 3/1/6 27/1/6 180/1/6
f 42/1/3 195/1/3 194/1/3
f 7/1/5 157/1/5 158/1/5
f 41/1/3 194/1/3 193/1/3
f 6/1/5 156/1/5 157/1/5
f 2/1/2 178/1/2 177/1/2
f 40/1/3 193/1/3 192/1/3
f 5/1/5 155/1/5 156/1/5
f 39/1/3 192/1/3 191/1/3
f 5/1/5 1/1/5 154/1/5
f 63/1/1 21/1/1 20/1/1
f 238/1/4 237/1/4 222/1/4
f 78/1/1 22/1/1 21/1/1
f 222/1/4 237/1/4 236/1/4
f 108/1/1 22/1/1 93/1/1
f 236/1/4 235/1/4 220/1/4
f 123/1/1 23/1/1 108/1/1
f 235/1/4 234/1/4 219/1/4
f 138/1/1 24/1/1 123/1/1
f 234/1/4 233/1/4 218/1/4
f 153/1/1 25/1/1 138/1/1
f 233/1/4 232/1/4 217/1/4
f 34/1/1 26/1/1 153/1/1
f 231/1/4 230/1/4 215/1/4
f 27/1/1 48/1/1 139/1/1
f 230/1/4 229/1/4 214/1/4
f 224/1/4 239/1/4 238/1/4
f 240/1/4 239/1/4 224/1/4
f 241/1/4 240/1/4 225/1/4
f 242/1/4 241/1/4 226/1/4
f 243/1/4 242/1/4 227/1/4
f 229/1/4 244/1/4 243/1/4
f 245/1/4 244/1/4 229/1/4
f 231/1/4 246/1/4 245/1/4
f 248/1/4 247/1/4 232/1/4
f 249/1/4 248/1/4 233/1/4
f 250/1/4 249/1/4 234/1/4
f 251/1/4 250/1/4 235/1/4
f 237/1/4 252/1/4 251/1/4
f 253/1/4 252/1/4 237/1/4
f 28/1/1 139/1/1 124/1/1
f 229/1/4 228/1/4 213/1/4
f 28/1/1 109/1/1 29/1/1
f 228/1/4 227/1/4 212/1/4
f 29/1/1 94/1/1 30/1/1
f 227/1/4 226/1/4 211/1/4
f 31/1/1 94/1/1 79/1/1
f 226/1/4 225/1/4 210/1/4
f 31/1/1 64/1/1 32/1/1
f 210/1/4 225/1/4 224/1/4
f 32/1/1 49/1/1 33/1/1
f 224/1/4 223/1/4 208/1/4
f 33/1/1 19/1/1 4/1/1
f 223/1/4 222/1/4 207/1/4
f 207/1/4 222/1/4 221/1/4
f 167/1/4 203/1/4 168/1/4
f 166/1/4 204/1/4 167/1/4
f 166/1/4 206/1/4 205/1/4
f 164/1/4 206/1/4 165/1/4
f 163/1/4 207/1/4 164/1/4
f 163/1/4 209/1/4 208/1/4
f 161/1/4 209/1/4 162/1/4
f 161/1/4 211/1/4 210/1/4
f 160/1/4 212/1/4 211/1/4
f 158/1/4 212/1/4 159/1/4
f 158/1/4 214/1/4 213/1/4
f 157/1/4 215/1/4 214/1/4
f 155/1/4 215/1/4 156/1/4
f 218/1/4 202/1/4 203/1/4
f 219/1/4 203/1/4 204/1/4
f 220/1/4 204/1/4 205/1/4
f 221/1/4 205/1/4 206/1/4
f 207/1/4 221/1/4 206/1/4
f 223/1/4 207/1/4 208/1/4
f 224/1/4 208/1/4 209/1/4
f 210/1/4 224/1/4 209/1/4
f 226/1/4 210/1/4 211/1/4
f 227/1/4 211/1/4 212/1/4
f 228/1/4 212/1/4 213/1/4
f 229/1/4 213/1/4 214/1/4
f 230/1/4 214/1/4 215/1/4
f 231/1/4 215/1/4 216/1/4
f 233/1/4 217/1/4 218/1/4
f 166/1/4 165/1/4 206/1/4
f 166/1/4 205/1/4 204/1/4
f 167/1/4 204/1/4 203/1/4
f 33/1/1 49/1/1 19/1/1
f 32/1/1 64/1/1 49/1/1
f 31/1/1 79/1/1 64/1/1
f 31/1/1 30/1/1 94/1/1
f 29/1/1 109/1/1 94/1/1
f 28/1/1 124/1/1 109/1/1
f 28/1/1 27/1/1 139/1/1
f 27/1/1 3/1/1 48/1/1
f 34/1/1 2/1/1 26/1/1
f 153/1/1 26/1/1 25/1/1
f 138/1/1 25/1/1 24/1/1
f 234/1/4 218/1/4 219/1/4
f 235/1/4 219/1/4 220/1/4
f 236/1/4 220/1/4 221/1/4
f 222/1/4 236/1/4 221/1/4
f 238/1/4 222/1/4 223/1/4
f 224/1/4 238/1/4 223/1/4
f 240/1/4 224/1/4 225/1/4
f 241/1/4 225/1/4 226/1/4
f 242/1/4 226/1/4 227/1/4
f 243/1/4 227/1/4 228/1/4
f 229/1/4 243/1/4 228/1/4
f 245/1/4 229/1/4 230/1/4
f 231/1/4 245/1/4 230/1/4
f 248/1/4 232/1/4 233/1/4
f 123/1/1 24/1/1 23/1/1
f 108/1/1 23/1/1 22/1/1
f 78/1/1 93/1/1 22/1/1
f 63/1/1 78/1/1 21/1/1
f 169/1/4 168/1/4 203/1/4
f 20/1/1 1/1/1 5/1/1
f 35/1/1 34/1/1 153/1/1
f 151/1/1 36/1/1 35/1/1
f 150/1/1 37/1/1 36/1/1
f 149/1/1 38/1/1 37/1/1
f 39/1/1 38/1/1 149/1/1
f 147/1/1 40/1/1 39/1/1
f 41/1/1 40/1/1 147/1/1
f 42/1/1 41/1/1 146/1/1
f 249/1/4 233/1/4 234/1/4
f 250/1/4 234/1/4 235/1/4
f 251/1/4 235/1/4 236/1/4
f 237/1/4 251/1/4 236/1/4
f 253/1/4 237/1/4 238/1/4
f 239/1/4 253/1/4 238/1/4
f 255/1/4 239/1/4 240/1/4
f 256/1/4 240/1/4 241/1/4
f 257/1/4 241/1/4 242/1/4
f 258/1/4 242/1/4 243/1/4
f 244/1/4 258/1/4 243/1/4
f 260/1/4 244/1/4 245/1/4
f 261/1/4 245/1/4 246/1/4
f 248/1/4 262/1/4 247/1/4
f 144/1/1 43/1/1 42/1/1
f 44/1/1 43/1/1 144/1/1
f 45/1/1 44/1/1 143/1/1
f 141/1/1 46/1/1 45/1/1
f 47/1/1 46/1/1 141/1/1
f 48/1/1 47/1/1 140/1/1
f 152/1/1 153/1/1 138/1/1
f 136/1/1 151/1/1 152/1/1
f 150/1/1 151/1/1 136/1/1
f 149/1/1 150/1/1 135/1/1
f 148/1/1 149/1/1 134/1/1
f 132/1/1 147/1/1 148/1/1
f 146/1/1 147/1/1 132/1/1
f 130/1/1 145/1/1 146/1/1
f 264/1/4 248/1/4 249/1/4
f 250/1/4 264/1/4 249/1/4
f 266/1/4 250/1/4 251/1/4
f 267/1/4 251/1/4 252/1/4
f 268/1/4 252/1/4 253/1/4
f 269/1/4 253/1/4 254/1/4
f 255/1/4 269/1/4 254/1/4
f 271/1/4 255/1/4 256/1/4
f 272/1/4 256/1/4 257/1/4
f 273/1/4 257/1/4 258/1/4
f 259/1/4 273/1/4 258/1/4
f 275/1/4 259/1/4 260/1/4
f 261/1/4 275/1/4 260/1/4
f 278/1/4 262/1/4 263/1/4
f 129/1/1 144/1/1 145/1/1
f 143/1/1 144/1/1 129/1/1
f 127/1/1 142/1/1 143/1/1
f 126/1/1 141/1/1 142/1/1
f 140/1/1 141/1/1 126/1/1
f 139/1/1 140/1/1 125/1/1
f 137/1/1 138/1/1 123/1/1
f 121/1/1 136/1/1 137/1/1
f 135/1/1 136/1/1 121/1/1
f 134/1/1 135/1/1 120/1/1
f 133/1/1 134/1/1 119/1/1
f 132/1/1 133/1/1 118/1/1
f 131/1/1 132/1/1 117/1/1
f 130/1/1 131/1/1 116/1/1
f 279/1/4 263/1/4 264/1/4
f 265/1/4 279/1/4 264/1/4
f 281/1/4 265/1/4 266/1/4
f 282/1/4 266/1/4 267/1/4
f 268/1/4 282/1/4 267/1/4
f 269/1/4 283/1/4 268/1/4
f 285/1/4 269/1/4 270/1/4
f 271/1/4 285/1/4 270/1/4
f 287/1/4 271/1/4 272/1/4
f 288/1/4 272/1/4 273/1/4
f 274/1/4 288/1/4 273/1/4
f 290/1/4 274/1/4 275/1/4
f 291/1/4 275/1/4 276/1/4
f 293/1/4 277/1/4 278/1/4
f 129/1/1 130/1/1 115/1/1
f 128/1/1 129/1/1 114/1/1
f 127/1/1 128/1/1 113/1/1
f 111/1/1 126/1/1 127/1/1
f 125/1/1 126/1/1 111/1/1
f 124/1/1 125/1/1 110/1/1
f 122/1/1 123/1/1 108/1/1
f 121/1/1 122/1/1 107/1/1
f 120/1/1 121/1/1 106/1/1
f 104/1/1 119/1/1 120/1/1
f 103/1/1 118/1/1 119/1/1
f 117/1/1 118/1/1 103/1/1
f 116/1/1 117/1/1 102/1/1
f 100/1/1 115/1/1 116/1/1
f 294/1/4 278/1/4 279/1/4
f 295/1/4 279/1/4 280/1/4
f 296/1/4 280/1/4 281/1/4
f 297/1/4 281/1/4 282/1/4
f 298/1/4 282/1/4 283/1/4
f 299/1/4 283/1/4 284/1/4
f 300/1/4 284/1/4 285/1/4
f 301/1/4 285/1/4 286/1/4
f 302/1/4 286/1/4 287/1/4
f 288/1/4 302/1/4 287/1/4
f 304/1/4 288/1/4 289/1/4
f 305/1/4 289/1/4 290/1/4
f 291/1/4 305/1/4 290/1/4
f 293/1/4 201/1/4 292/1/4
f 114/1/1 115/1/1 100/1/1
f 113/1/1 114/1/1 99/1/1
f 97/1/1 112/1/1 113/1/1
f 111/1/1 112/1/1 97/1/1
f 110/1/1 111/1/1 96/1/1
f 109/1/1 110/1/1 95/1/1
f 107/1/1 108/1/1 93/1/1
f 91/1/1 106/1/1 107/1/1
f 105/1/1 106/1/1 91/1/1
f 104/1/1 105/1/1 90/1/1
f 88/1/1 103/1/1 104/1/1
f 102/1/1 103/1/1 88/1/1
f 101/1/1 102/1/1 87/1/1
f 100/1/1 101/1/1 86/1/1
f 199/1/4 293/1/4 294/1/4
f 198/1/4 294/1/4 295/1/4
f 197/1/4 295/1/4 296/1/4
f 196/1/4 296/1/4 297/1/4
f 195/1/4 297/1/4 298/1/4
f 194/1/4 298/1/4 299/1/4
f 193/1/4 299/1/4 300/1/4
f 192/1/4 300/1/4 301/1/4
f 191/1/4 301/1/4 302/1/4
f 190/1/4 302/1/4 303/1/4
f 189/1/4 303/1/4 304/1/4
f 188/1/4 304/1/4 305/1/4
f 306/1/4 188/1/4 305/1/4
f 171/1/4 155/1/4 154/1/4
f 24/1/2 174/1/2 23/1/2
f 221/1/4 220/1/4 205/1/4
f 220/1/4 219/1/4 204/1/4
f 219/1/4 218/1/4 203/1/4
f 218/1/4 217/1/4 202/1/4
f 155/1/4 216/1/4 215/1/4
f 157/1/4 156/1/4 215/1/4
f 158/1/4 157/1/4 214/1/4
f 158/1/4 213/1/4 212/1/4
f 160/1/4 159/1/4 212/1/4
f 161/1/4 160/1/4 211/1/4
f 161/1/4 210/1/4 209/1/4
f 163/1/4 162/1/4 209/1/4
f 163/1/4 208/1/4 207/1/4
f 164/1/4 207/1/4 206/1/4
f 172/1/4 216/1/4 171/1/4
f 84/1/1 85/1/1 70/1/1
f 173/1/4 231/1/4 172/1/4
f 83/1/1 84/1/1 69/1/1
f 174/1/4 246/1/4 173/1/4
f 67/1/1 82/1/1 83/1/1
f 175/1/4 261/1/4 174/1/4
f 81/1/1 82/1/1 67/1/1
f 176/1/4 276/1/4 175/1/4
f 80/1/1 81/1/1 66/1/1
f 176/1/4 306/1/4 291/1/4
f 64/1/1 79/1/1 80/1/1
f 177/1/4 187/1/4 306/1/4
f 77/1/1 78/1/1 63/1/1
f 180/1/4 201/1/4 179/1/4
f 61/1/1 76/1/1 77/1/1
f 85/1/1 86/1/1 71/1/1
f 86/1/1 87/1/1 72/1/1
f 72/1/1 87/1/1 88/1/1
f 88/1/1 89/1/1 74/1/1
f 89/1/1 90/1/1 75/1/1
f 90/1/1 91/1/1 76/1/1
f 91/1/1 92/1/1 77/1/1
f 92/1/1 93/1/1 78/1/1
f 94/1/1 95/1/1 80/1/1
f 80/1/1 95/1/1 96/1/1
f 81/1/1 96/1/1 97/1/1
f 82/1/1 97/1/1 98/1/1
f 98/1/1 99/1/1 84/1/1
f 99/1/1 100/1/1 85/1/1
f 181/1/4 292/1/4 180/1/4
f 75/1/1 76/1/1 61/1/1
f 182/1/4 277/1/4 181/1/4
f 59/1/1 74/1/1 75/1/1
f 247/1/4 182/1/4 183/1/4
f 73/1/1 74/1/1 59/1/1
f 184/1/4 247/1/4 183/1/4
f 57/1/1 72/1/1 73/1/1
f 217/1/4 184/1/4 185/1/4
f 71/1/1 72/1/1 57/1/1
f 202/1/4 185/1/4 186/1/4
f 55/1/1 70/1/1 71/1/1
f 186/1/4 169/1/4 202/1/4
f 69/1/1 70/1/1 55/1/1
f 68/1/1 69/1/1 54/1/1
f 25/1/2 175/1/2 24/1/2
f 38/1/3 190/1/3 37/1/3
f 26/1/2 176/1/2 25/1/2
f 5/1/5 154/1/5 155/1/5
f 39/1/3 191/1/3 38/1/3
f 66/1/1 67/1/1 52/1/1
f 5/1/5 156/1/5 6/1/5
f 40/1/3 192/1/3 39/1/3
f 2/1/2 177/1/2 26/1/2
f 6/1/5 157/1/5 7/1/5
f 41/1/3 193/1/3 40/1/3
f 65/1/1 66/1/1 51/1/1
f 7/1/5 158/1/5 8/1/5
f 42/1/3 194/1/3 41/1/3
f 3/1/6 180/1/6 179/1/6
f 8/1/5 159/1/5 9/1/5
f 43/1/3 195/1/3 42/1/3
f 49/1/1 64/1/1 65/1/1
f 9/1/5 160/1/5 10/1/5
f 44/1/3 196/1/3 43/1/3
f 28/1/6 180/1/6 27/1/6
f 10/1/5 161/1/5 11/1/5
f 45/1/3 197/1/3 44/1/3
f 62/1/1 63/1/1 5/1/1
f 11/1/5 162/1/5 12/1/5
f 46/1/3 198/1/3 45/1/3
f 29/1/6 181/1/6 28/1/6
f 13/1/5 162/1/5 163/1/5
f 47/1/3 199/1/3 46/1/3
f 7/1/1 61/1/1 62/1/1
f 13/1/5 164/1/5 14/1/5
f 48/1/3 200/1/3 47/1/3
f 30/1/6 182/1/6 29/1/6
f 14/1/5 165/1/5 15/1/5
f 3/1/3 201/1/3 48/1/3
f 8/1/1 60/1/1 61/1/1
f 16/1/5 165/1/5 166/1/5
f 31/1/6 183/1/6 30/1/6
f 16/1/5 167/1/5 17/1/5
f 59/1/1 60/1/1 8/1/1
f 17/1/5 168/1/5 18/1/5
f 32/1/6 184/1/6 31/1/6
f 19/1/5 168/1/5 169/1/5
f 10/1/1 58/1/1 59/1/1
f 19/1/5 170/1/5 4/1/5
f 20/1/2 154/1/2 1/1/2
f 32/1/6 186/1/6 185/1/6
f 11/1/1 57/1/1 58/1/1
f 56/1/1 57/1/1 11/1/1
f 21/1/2 171/1/2 20/1/2
f 4/1/6 186/1/6 33/1/6
f 13/1/1 55/1/1 56/1/1
f 54/1/1 55/1/1 13/1/1
f 21/1/2 173/1/2 172/1/2
f 22/1/2 174/1/2 173/1/2
f 53/1/1 54/1/1 14/1/1
f 16/1/1 52/1/1 53/1/1
f 34/1/3 178/1/3 2/1/3
f 50/1/1 51/1/1 17/1/1
f 35/1/3 187/1/3 34/1/3
f 51/1/1 52/1/1 16/1/1
f 36/1/3 188/1/3 35/1/3
f 52/1/1 67/1/1 68/1/1
f 37/1/3 189/1/3 36/1/3
f 19/1/1 50/1/1 18/1/1
f 28/1/6 181/1/6 180/1/6
f 10/1/5 160/1/5 161/1/5
f 45/1/3 198/1/3 197/1/3
f 11/1/5 161/1/5 162/1/5
f 46/1/3 199/1/3 198/1/3
f 29/1/6 182/1/6 181/1/6
f 13/1/5 12/1/5 162/1/5
f 47/1/3 200/1/3 199/1/3
f 13/1/5 163/1/5 164/1/5
f 48/1/3 201/1/3 200/1/3
f 30/1/6 183/1/6 182/1/6
f 14/1/5 164/1/5 165/1/5
f 3/1/3 179/1/3 201/1/3
f 16/1/5 15/1/5 165/1/5
f 31/1/6 184/1/6 183/1/6
f 16/1/5 166/1/5 167/1/5
f 17/1/5 167/1/5 168/1/5
f 32/1/6 185/1/6 184/1/6
f 19/1/5 18/1/5 168/1/5
f 19/1/5 169/1/5 170/1/5
f 20/1/2 171/1/2 154/1/2
f 32/1/6 33/1/6 186/1/6
f 21/1/2 172/1/2 171/1/2
f 4/1/6 170/1/6 186/1/6
f 21/1/2 22/1/2 173/1/2
f 22/1/2 23/1/2 174/1/2
f 34/1/3 187/1/3 178/1/3
f 35/1/3 188/1/3 187/1/3
f 36/1/3 189/1/3 188/1/3
f 37/1/3 190/1/3 189/1/3
f 19/1/1 49/1/1 50/1/1
